<svg height="590" width="720" xmlns="http://www.w3.org/2000/svg">
<rect height="590" fill="#555" width="720"></rect>
<text fill="#7f7" font-family="Courier New" font-size="12" xml:space="preserve">
<tspan x="10" y="26">1 megabytes installed</tspan>
<tspan x="10" y="42"></tspan>
<tspan x="10" y="58">node_modules</tspan>
<tspan x="10" y="74">└─┬ gifi@1.2.0 </tspan>
<tspan x="10" y="90">  ├── array-shuffle@1.0.1 </tspan>
<tspan x="10" y="106">  ├─┬ cross-spawn-async@2.2.5 </tspan>
<tspan x="10" y="122">  │ ├─┬ lru-cache@4.0.2 </tspan>
<tspan x="10" y="138">  │ │ ├── pseudomap@1.0.2 </tspan>
<tspan x="10" y="154">  │ │ └── yallist@2.1.2 </tspan>
<tspan x="10" y="170">  │ └─┬ which@1.2.14 </tspan>
<tspan x="10" y="186">  │   └── isexe@2.0.0 </tspan>
<tspan x="10" y="202">  ├── each-series@1.0.0 </tspan>
<tspan x="10" y="218">  ├─┬ got@6.7.1 </tspan>
<tspan x="10" y="234">  │ ├─┬ create-error-class@3.0.2 </tspan>
<tspan x="10" y="250">  │ │ └── capture-stack-trace@1.0.0 </tspan>
<tspan x="10" y="266">  │ ├── duplexer3@0.1.4 </tspan>
<tspan x="10" y="282">  │ ├── get-stream@3.0.0 </tspan>
<tspan x="10" y="298">  │ ├── is-redirect@1.0.0 </tspan>
<tspan x="10" y="314">  │ ├── is-retry-allowed@1.1.0 </tspan>
<tspan x="10" y="330">  │ ├── is-stream@1.1.0 </tspan>
<tspan x="10" y="346">  │ ├── lowercase-keys@1.0.0 </tspan>
<tspan x="10" y="362">  │ ├── safe-buffer@5.0.1 </tspan>
<tspan x="10" y="378">  │ ├── timed-out@4.0.1 </tspan>
<tspan x="10" y="394">  │ ├── unzip-response@2.0.1 </tspan>
<tspan x="10" y="410">  │ └─┬ url-parse-lax@1.0.0 </tspan>
<tspan x="10" y="426">  │   └── prepend-http@1.0.4 </tspan>
<tspan x="10" y="442">  ├── imgcat@0.1.1 </tspan>
<tspan x="10" y="458">  ├── is-iterm@1.0.0 </tspan>
<tspan x="10" y="474">  ├─┬ opn@4.0.2 </tspan>
<tspan x="10" y="490">  │ ├── object-assign@4.1.1 </tspan>
<tspan x="10" y="506">  │ └─┬ pinkie-promise@2.0.1 </tspan>
<tspan x="10" y="522">  │   └── pinkie@2.0.4 </tspan>
<tspan x="10" y="538">  └─┬ tempfile@1.1.1 </tspan>
<tspan x="10" y="554">    ├── os-tmpdir@1.0.2 </tspan>
<tspan x="10" y="570">    └── uuid@2.0.3</tspan>
</text>
</svg>
